<?xml version="1.0" standalone="no"?>
<!DOCTYPE svg PUBLIC "-//W3C//DTD SVG 20010904//EN"
 "http://www.w3.org/TR/2001/REC-SVG-20010904/DTD/svg10.dtd">
<svg version="1.0" xmlns="http://www.w3.org/2000/svg"
 width="512.000000pt" height="512.000000pt" viewBox="0 0 512.000000 512.000000"
 preserveAspectRatio="xMidYMid meet">
<metadata>
Created by potrace 1.11, written by Peter Selinger 2001-2013
</metadata>
<g transform="translate(0.000000,512.000000) scale(0.100000,-0.100000)"
fill="#000000" stroke="none">
<path d="M4180 3534 c-14 -2 -52 -9 -85 -15 -186 -34 -346 -176 -386 -344 -28
-123 -14 -277 34 -371 74 -144 203 -213 532 -284 127 -27 236 -65 265 -92 72
-67 62 -191 -19 -245 -52 -35 -97 -45 -212 -49 -162 -4 -355 44 -531 132 -67
34 -68 34 -69 12 0 -13 -1 -94 -2 -181 l-2 -158 110 -35 c61 -19 124 -37 140
-39 29 -5 48 -9 105 -20 97 -20 360 -27 468 -12 312 42 472 224 472 538 0 169
-68 298 -197 374 -75 45 -242 100 -363 120 -82 13 -228 49 -265 65 -67 29 -90
62 -90 128 0 73 26 111 97 143 47 21 67 24 188 24 188 0 251 -13 453 -89 l67
-25 1 82 c0 45 1 122 1 171 1 69 -2 90 -14 97 -15 8 -230 54 -303 64 -55 7
-364 15 -395 9z"/>
<path d="M720 3498 c0 -7 -9 -35 -20 -63 -32 -82 -121 -319 -124 -330 -2 -5
-6 -17 -9 -25 -3 -8 -53 -143 -110 -300 -58 -157 -158 -426 -221 -598 -64
-171 -116 -316 -116 -321 0 -6 87 -10 210 -10 208 0 211 0 220 22 5 12 20 54
33 92 14 39 34 97 46 130 l22 60 330 0 c282 0 331 -2 339 -15 5 -8 28 -71 51
-140 23 -69 46 -130 51 -137 11 -14 414 -17 423 -3 3 5 1 17 -4 27 -6 10 -35
88 -66 173 -93 255 -196 533 -207 560 -6 14 -27 72 -48 130 -33 91 -256 695
-275 743 -7 16 -29 17 -266 17 -198 0 -259 -3 -259 -12z m351 -629 c74 -216
107 -312 129 -381 l8 -26 -224 0 c-123 1 -224 2 -224 3 0 6 192 573 215 634 3
8 8 12 10 9 3 -3 41 -110 86 -239z"/>
<path d="M2070 2682 l0 -830 215 0 215 -1 0 290 0 289 193 1 c105 1 203 2 217
4 348 37 535 237 524 559 -9 259 -142 418 -414 494 -45 12 -140 16 -502 19
l-448 4 0 -829z m754 508 c102 -21 161 -92 169 -201 9 -112 -50 -205 -146
-234 -35 -10 -96 -15 -199 -15 l-148 0 0 233 0 232 135 -2 c75 -1 160 -7 189
-13z"/>
</g>
</svg>
